<svg xmlns="http://www.w3.org/2000/svg" width="2600" height="1414" viewBox="0 0 1400 760" role="img" aria-labelledby="title desc">
  <title id="title">MDPR Design Components Pipeline</title>
  <desc id="desc">A polished overview image generated from pipeline.md, showing MDPR content splitting, optional LLM reasoning hints, deterministic design rules, and editable outputs.</desc>
  <rect id="z00_background" width="1400" height="760" fill="#F7F2EA"/>
<path id="z00_editorial_grid" d="M72 126 H1328 M72 621 H1328 M380 126 V621 M690 126 V621 M1104 126 V621" fill="none" stroke="#E7D8C7" stroke-width="1" opacity="0.55"/>
<path id="z00_flow_trace" d="M102 628 C280 602 400 622 553 604 S835 604 966 632 1190 655 1300 618" fill="none" stroke="#E7D8C7" stroke-width="2.4" opacity="0.48"/>
<text id="header_title" x="68.0" y="66.0" fill="#111827" font-family="Inter, Segoe UI, Arial, sans-serif" font-size="38" font-weight="700" dominant-baseline="middle">MDPR Design Components Pipeline</text>
<text id="header_subtitle" x="68.0" y="106.0" fill="#64748B" font-family="Inter, Segoe UI, Arial, sans-serif" font-size="17" font-weight="400" dominant-baseline="middle">MDPR splits content. Optional agent tags stay minimal. Deterministic rules own layout, style, z-order, and editable rendering.</text>
<rect id="zone_content_panel_shadow" x="93.0" y="156.0" width="280.0" height="430.0" rx="42.0" fill="#0F172A" opacity="0.12"/>
<rect id="zone_content_panel" x="90.0" y="150.0" width="280.0" height="430.0" rx="42.0" fill="#EEF4EF" stroke="#C8D8C8" stroke-width="1.5"/>
<text id="zone_content_title" x="112.0" y="192.0" fill="#334155" font-family="Inter, Segoe UI, Arial, sans-serif" font-size="20" font-weight="700" dominant-baseline="middle">1. Content Contract</text>
<text id="zone_content_subtitle" x="112.0" y="228.0" fill="#64748B" font-family="Inter, Segoe UI, Arial, sans-serif" font-size="17" font-weight="400" dominant-baseline="middle">semantic structure only</text>
<rect id="zone_reasoning_panel_shadow" x="398.0" y="156.0" width="280.0" height="430.0" rx="42.0" fill="#0F172A" opacity="0.12"/>
<rect id="zone_reasoning_panel" x="395.0" y="150.0" width="280.0" height="430.0" rx="42.0" fill="#FFF3DE" stroke="#E4BF75" stroke-width="1.5"/>
<text id="zone_reasoning_title" x="417.0" y="192.0" fill="#8B4E16" font-family="Inter, Segoe UI, Arial, sans-serif" font-size="20" font-weight="700" dominant-baseline="middle">2. Agent Hints</text>
<text id="zone_reasoning_subtitle" x="417.0" y="228.0" fill="#64748B" font-family="Inter, Segoe UI, Arial, sans-serif" font-size="17" font-weight="400" dominant-baseline="middle">small optional tags</text>
<rect id="zone_rules_panel_shadow" x="703.0" y="156.0" width="395.0" height="430.0" rx="42.0" fill="#0F172A" opacity="0.12"/>
<rect id="zone_rules_panel" x="700.0" y="150.0" width="395.0" height="430.0" rx="42.0" fill="#EAF7F3" stroke="#7CC7BA" stroke-width="1.5"/>
<text id="zone_rules_title" x="722.0" y="192.0" fill="#115E59" font-family="Inter, Segoe UI, Arial, sans-serif" font-size="20" font-weight="700" dominant-baseline="middle">3. Deterministic Design</text>
<text id="zone_rules_subtitle" x="722.0" y="228.0" fill="#64748B" font-family="Inter, Segoe UI, Arial, sans-serif" font-size="17" font-weight="400" dominant-baseline="middle">final visual choices</text>
<rect id="zone_outputs_panel_shadow" x="1123.0" y="156.0" width="250.0" height="430.0" rx="42.0" fill="#0F172A" opacity="0.12"/>
<rect id="zone_outputs_panel" x="1120.0" y="150.0" width="250.0" height="430.0" rx="42.0" fill="#F1F0FA" stroke="#B8B5E6" stroke-width="1.5"/>
<text id="zone_outputs_title" x="1142.0" y="192.0" fill="#4338CA" font-family="Inter, Segoe UI, Arial, sans-serif" font-size="20" font-weight="700" dominant-baseline="middle">4. Outputs</text>
<text id="zone_outputs_subtitle" x="1142.0" y="228.0" fill="#64748B" font-family="Inter, Segoe UI, Arial, sans-serif" font-size="17" font-weight="400" dominant-baseline="middle">PPTX, HTML, PDF</text>
  <g id="arrow_layer">
    <path id="main_start_markdown" d="M230.0,280.0 L230.0,297.0" fill="none" stroke="#111827" stroke-width="5.2" stroke-linecap="round" stroke-linejoin="round"/>
    <polygon id="main_start_markdown_head" points="230.0,306.0 225.9,295.1 234.1,295.1" fill="#111827"/>
    <path id="main_markdown_splitter" d="M230.0,411.0 L230.0,435.3" fill="none" stroke="#475569" stroke-width="4.0" stroke-linecap="round" stroke-linejoin="round"/>
    <polygon id="main_markdown_splitter_head" points="230.0,448.0 224.2,432.5 235.8,432.5" fill="#475569"/>
    <path id="main_splitter_ir" d="M345.0,504.0 L418.2,304.5" fill="none" stroke="#475569" stroke-width="4.0" stroke-linecap="round" stroke-linejoin="round"/>
    <polygon id="main_splitter_ir_head" points="425.0,286.0 425.2,311.6 408.3,305.4" fill="#475569"/>
    <path id="hint_ir_reasoning" d="M535.0,342.0 L535.0,375.2" fill="none" stroke="#A85520" stroke-width="3.0" stroke-linecap="round" stroke-linejoin="round" stroke-dasharray="14 12"/>
    <polygon id="hint_ir_reasoning_head" points="535.0,390.0 528.2,372.0 541.8,372.0" fill="#A85520"/>
    <path id="main_ir_rules" d="M645.0,286.0 L714.4,286.0" fill="none" stroke="#111827" stroke-width="5.2" stroke-linecap="round" stroke-linejoin="round"/>
    <polygon id="main_ir_rules_head" points="740.0,286.0 708.8,297.7 708.8,274.3" fill="#111827"/>
    <path id="hint_reasoning_rules" d="M645.0,475.0 L724.0,404.4" fill="none" stroke="#A85520" stroke-width="3.0" stroke-linecap="round" stroke-linejoin="round" stroke-dasharray="14 12"/>
    <polygon id="hint_reasoning_rules_head" points="735.0,394.6 726.1,411.6 717.1,401.6" fill="#A85520"/>
    <path id="rule_features_recipes" d="M880.0,400.0 L906.2,400.0" fill="none" stroke="#0F766E" stroke-width="2.8" stroke-linecap="round" stroke-linejoin="round"/>
    <polygon id="rule_features_recipes_head" points="920.0,400.0 903.2,406.3 903.2,393.7" fill="#0F766E"/>
    <path id="rule_features_compose" d="M807.5,454.0 L807.5,456.6" fill="none" stroke="#0F766E" stroke-width="2.8" stroke-linecap="round" stroke-linejoin="round"/>
    <path id="rule_recipes_decorate" d="M992.5,454.0 L992.5,456.6" fill="none" stroke="#0F766E" stroke-width="2.8" stroke-linecap="round" stroke-linejoin="round"/>
    <path id="rule_compose_decorate" d="M880.0,512.0 L906.2,512.0" fill="none" stroke="#0F766E" stroke-width="2.8" stroke-linecap="round" stroke-linejoin="round"/>
    <polygon id="rule_compose_decorate_head" points="920.0,512.0 903.2,518.3 903.2,505.7" fill="#0F766E"/>
    <path id="main_rules_styled_ir" d="M1055.0,286.0 L1119.4,286.0" fill="none" stroke="#111827" stroke-width="5.2" stroke-linecap="round" stroke-linejoin="round"/>
    <polygon id="main_rules_styled_ir_head" points="1145.0,286.0 1113.8,297.7 1113.8,274.3" fill="#111827"/>
    <path id="main_styled_renderers" d="M1245.0,338.5 L1245.0,372.3" fill="none" stroke="#475569" stroke-width="4.0" stroke-linecap="round" stroke-linejoin="round"/>
    <polygon id="main_styled_renderers_head" points="1245.0,390.0 1236.9,368.4 1253.1,368.4" fill="#475569"/>
    <path id="validation_loop" d="M1245.0,495.0 L1245.0,506.1" fill="none" stroke="#BE123C" stroke-width="3.4" stroke-linecap="round" stroke-linejoin="round"/>
    <polygon id="validation_loop_head" points="1245.0,512.0 1242.3,504.9 1247.7,504.9" fill="#BE123C"/>
  </g>
<rect id="start_flag_shadow" x="193.0" y="252.0" width="80.0" height="34.0" rx="7.0" fill="#0F172A" opacity="0.12"/>
<rect id="start_flag" x="190.0" y="246.0" width="80.0" height="34.0" rx="7.0" fill="#111827" stroke="#111827" stroke-width="1.2"/>
<text id="start_flag_text" x="212.0" y="264.0" fill="#FFFFFF" font-family="Inter, Segoe UI, Arial, sans-serif" font-size="13" font-weight="700" dominant-baseline="middle">start</text>
<rect id="markdown_card_shadow" x="118.0" y="312.0" width="230.0" height="105.0" rx="22.0" fill="#0F172A" opacity="0.12"/>
<rect id="markdown_card" x="115.0" y="306.0" width="230.0" height="105.0" rx="22.0" fill="#FFFDF8" stroke="#DACFC0" stroke-width="1.5"/>
<circle id="markdown_dot" cx="144.0" cy="343.0" r="11" fill="#86A789" stroke="#B7C6D8" stroke-width="1.2"/>
<text id="markdown_title" x="168.0" y="343.0" fill="#111827" font-family="Inter, Segoe UI, Arial, sans-serif" font-size="16" font-weight="700" dominant-baseline="middle">Markdown</text>
<text id="markdown_line_0" x="144.0" y="376.0" fill="#526071" font-family="Inter, Segoe UI, Arial, sans-serif" font-size="14" font-weight="400" dominant-baseline="middle">text, tables, code</text>
<text id="markdown_line_1" x="144.0" y="394.2" fill="#526071" font-family="Inter, Segoe UI, Arial, sans-serif" font-size="14" font-weight="400" dominant-baseline="middle">images and notes</text>
<rect id="splitter_card_shadow" x="118.0" y="454.0" width="230.0" height="112.0" rx="22.0" fill="#0F172A" opacity="0.12"/>
<rect id="splitter_card" x="115.0" y="448.0" width="230.0" height="112.0" rx="22.0" fill="#FFFDF8" stroke="#DACFC0" stroke-width="1.5"/>
<circle id="splitter_dot" cx="144.0" cy="485.0" r="11" fill="#86A789" stroke="#B7C6D8" stroke-width="1.2"/>
<text id="splitter_title" x="168.0" y="485.0" fill="#111827" font-family="Inter, Segoe UI, Arial, sans-serif" font-size="16" font-weight="700" dominant-baseline="middle">MDPR Splitter</text>
<text id="splitter_line_0" x="144.0" y="518.0" fill="#526071" font-family="Inter, Segoe UI, Arial, sans-serif" font-size="14" font-weight="400" dominant-baseline="middle">slide and object split</text>
<text id="splitter_line_1" x="144.0" y="543.2" fill="#526071" font-family="Inter, Segoe UI, Arial, sans-serif" font-size="14" font-weight="400" dominant-baseline="middle">no visual choices</text>
<rect id="ir_core_card_shadow" x="428.0" y="236.0" width="220.0" height="112.0" rx="22.0" fill="#0F172A" opacity="0.12"/>
<rect id="ir_core_card" x="425.0" y="230.0" width="220.0" height="112.0" rx="22.0" fill="#FFFFFF" stroke="#E4BF75" stroke-width="1.5"/>
<circle id="ir_core_dot" cx="454.0" cy="267.0" r="11" fill="#E9B44C" stroke="#B7C6D8" stroke-width="1.2"/>
<text id="ir_core_title" x="478.0" y="267.0" fill="#111827" font-family="Inter, Segoe UI, Arial, sans-serif" font-size="16" font-weight="700" dominant-baseline="middle">Slide Element IR</text>
<text id="ir_core_line_0" x="454.0" y="300.0" fill="#526071" font-family="Inter, Segoe UI, Arial, sans-serif" font-size="14" font-weight="400" dominant-baseline="middle">content-only contract</text>
<rect id="reasoning_card_shadow" x="428.0" y="396.0" width="220.0" height="170.0" rx="22.0" fill="#0F172A" opacity="0.12"/>
<rect id="reasoning_card" x="425.0" y="390.0" width="220.0" height="170.0" rx="22.0" fill="#FFFFFF" stroke="#E4BF75" stroke-width="1.5"/>
<circle id="reasoning_dot" cx="454.0" cy="427.0" r="11" fill="#E9B44C" stroke="#B7C6D8" stroke-width="1.2"/>
<text id="reasoning_title" x="478.0" y="427.0" fill="#111827" font-family="Inter, Segoe UI, Arial, sans-serif" font-size="16" font-weight="700" dominant-baseline="middle">Hint Packet</text>
<text id="reasoning_line_0" x="454.0" y="460.0" fill="#526071" font-family="Inter, Segoe UI, Arial, sans-serif" font-size="14" font-weight="400" dominant-baseline="middle">intent tags only</text>
<rect id="reasoning_guard_shadow" x="453.0" y="492.0" width="170.0" height="34.0" rx="7.0" fill="#0F172A" opacity="0.12"/>
<rect id="reasoning_guard" x="450.0" y="486.0" width="170.0" height="34.0" rx="7.0" fill="#FFF7E6" stroke="#E9B44C" stroke-width="1.2"/>
<text id="reasoning_guard_text" x="472.0" y="504.0" fill="#7C3D12" font-family="Inter, Segoe UI, Arial, sans-serif" font-size="13" font-weight="700" dominant-baseline="middle">hints only</text>
<text id="reasoning_limit" x="450.0" y="530.0" fill="#64748B" font-family="Inter, Segoe UI, Arial, sans-serif" font-size="13" font-weight="700" dominant-baseline="middle">no coordinates or styles</text>
<rect id="rule_engine_card_shadow" x="743.0" y="248.0" width="315.0" height="88.0" rx="22.0" fill="#0F172A" opacity="0.12"/>
<rect id="rule_engine_card" x="740.0" y="242.0" width="315.0" height="88.0" rx="22.0" fill="#DCFCE7" stroke="#7CC7BA" stroke-width="1.5"/>
<text id="rule_engine_title" x="770.0" y="272.0" fill="#14532D" font-family="Inter, Segoe UI, Arial, sans-serif" font-size="17" font-weight="700" dominant-baseline="middle">Rule Engine Boundary</text>
<text id="rule_engine_body" x="770.0" y="308.0" fill="#166534" font-family="Inter, Segoe UI, Arial, sans-serif" font-size="14" font-weight="400" dominant-baseline="middle">recipes, variants, z-order</text>
<rect id="features_card_shadow" x="738.0" y="352.0" width="145.0" height="108.0" rx="22.0" fill="#0F172A" opacity="0.12"/>
<rect id="features_card" x="735.0" y="346.0" width="145.0" height="108.0" rx="22.0" fill="#F8FAFC" stroke="#BBF7D0" stroke-width="1.5"/>
<circle id="features_dot" cx="764.0" cy="383.0" r="11" fill="#14B8A6" stroke="#B7C6D8" stroke-width="1.2"/>
<text id="features_title" x="788.0" y="383.0" fill="#111827" font-family="Inter, Segoe UI, Arial, sans-serif" font-size="16" font-weight="700" dominant-baseline="middle">Features</text>
<text id="features_line_0" x="764.0" y="416.0" fill="#526071" font-family="Inter, Segoe UI, Arial, sans-serif" font-size="14" font-weight="400" dominant-baseline="middle">density, mix</text>
<text id="features_line_1" x="764.0" y="437.2" fill="#526071" font-family="Inter, Segoe UI, Arial, sans-serif" font-size="14" font-weight="400" dominant-baseline="middle">size risk</text>
<rect id="recipes_card_shadow" x="923.0" y="352.0" width="145.0" height="108.0" rx="22.0" fill="#0F172A" opacity="0.12"/>
<rect id="recipes_card" x="920.0" y="346.0" width="145.0" height="108.0" rx="22.0" fill="#F8FAFC" stroke="#BBF7D0" stroke-width="1.5"/>
<circle id="recipes_dot" cx="949.0" cy="383.0" r="11" fill="#14B8A6" stroke="#B7C6D8" stroke-width="1.2"/>
<text id="recipes_title" x="973.0" y="383.0" fill="#111827" font-family="Inter, Segoe UI, Arial, sans-serif" font-size="16" font-weight="700" dominant-baseline="middle">Recipes</text>
<text id="recipes_line_0" x="949.0" y="416.0" fill="#526071" font-family="Inter, Segoe UI, Arial, sans-serif" font-size="14" font-weight="400" dominant-baseline="middle">profile match</text>
<text id="recipes_line_1" x="949.0" y="437.2" fill="#526071" font-family="Inter, Segoe UI, Arial, sans-serif" font-size="14" font-weight="400" dominant-baseline="middle">variant</text>
<rect id="compose_card_shadow" x="738.0" y="464.0" width="145.0" height="108.0" rx="22.0" fill="#0F172A" opacity="0.12"/>
<rect id="compose_card" x="735.0" y="458.0" width="145.0" height="108.0" rx="22.0" fill="#F8FAFC" stroke="#BBF7D0" stroke-width="1.5"/>
<circle id="compose_dot" cx="764.0" cy="495.0" r="11" fill="#14B8A6" stroke="#B7C6D8" stroke-width="1.2"/>
<text id="compose_title" x="788.0" y="495.0" fill="#111827" font-family="Inter, Segoe UI, Arial, sans-serif" font-size="16" font-weight="700" dominant-baseline="middle">Compose</text>
<text id="compose_line_0" x="764.0" y="528.0" fill="#526071" font-family="Inter, Segoe UI, Arial, sans-serif" font-size="14" font-weight="400" dominant-baseline="middle">regions, fit</text>
<text id="compose_line_1" x="764.0" y="549.2" fill="#526071" font-family="Inter, Segoe UI, Arial, sans-serif" font-size="14" font-weight="400" dominant-baseline="middle">overflow</text>
<rect id="decorate_card_shadow" x="923.0" y="464.0" width="145.0" height="108.0" rx="22.0" fill="#0F172A" opacity="0.12"/>
<rect id="decorate_card" x="920.0" y="458.0" width="145.0" height="108.0" rx="22.0" fill="#F8FAFC" stroke="#BBF7D0" stroke-width="1.5"/>
<circle id="decorate_dot" cx="949.0" cy="495.0" r="11" fill="#14B8A6" stroke="#B7C6D8" stroke-width="1.2"/>
<text id="decorate_title" x="973.0" y="495.0" fill="#111827" font-family="Inter, Segoe UI, Arial, sans-serif" font-size="16" font-weight="700" dominant-baseline="middle">Decorate</text>
<text id="decorate_line_0" x="949.0" y="528.0" fill="#526071" font-family="Inter, Segoe UI, Arial, sans-serif" font-size="14" font-weight="400" dominant-baseline="middle">type, radius</text>
<text id="decorate_line_1" x="949.0" y="549.2" fill="#526071" font-family="Inter, Segoe UI, Arial, sans-serif" font-size="14" font-weight="400" dominant-baseline="middle">effects</text>
<rect id="styled_ir_card_shadow" x="1148.0" y="239.5" width="200.0" height="105.0" rx="22.0" fill="#0F172A" opacity="0.12"/>
<rect id="styled_ir_card" x="1145.0" y="233.5" width="200.0" height="105.0" rx="22.0" fill="#FFFDF8" stroke="#DACFC0" stroke-width="1.5"/>
<circle id="styled_ir_dot" cx="1174.0" cy="270.5" r="11" fill="#818CF8" stroke="#B7C6D8" stroke-width="1.2"/>
<text id="styled_ir_title" x="1198.0" y="270.5" fill="#111827" font-family="Inter, Segoe UI, Arial, sans-serif" font-size="16" font-weight="700" dominant-baseline="middle">Styled Deck IR</text>
<text id="styled_ir_line_0" x="1174.0" y="303.5" fill="#526071" font-family="Inter, Segoe UI, Arial, sans-serif" font-size="14" font-weight="400" dominant-baseline="middle">renderer-neutral</text>
<text id="styled_ir_line_1" x="1174.0" y="321.8" fill="#526071" font-family="Inter, Segoe UI, Arial, sans-serif" font-size="14" font-weight="400" dominant-baseline="middle">visual contract</text>
<rect id="renderers_card_shadow" x="1148.0" y="396.0" width="200.0" height="105.0" rx="22.0" fill="#0F172A" opacity="0.12"/>
<rect id="renderers_card" x="1145.0" y="390.0" width="200.0" height="105.0" rx="22.0" fill="#FFFDF8" stroke="#DACFC0" stroke-width="1.5"/>
<circle id="renderers_dot" cx="1174.0" cy="427.0" r="11" fill="#818CF8" stroke="#B7C6D8" stroke-width="1.2"/>
<text id="renderers_title" x="1198.0" y="427.0" fill="#111827" font-family="Inter, Segoe UI, Arial, sans-serif" font-size="16" font-weight="700" dominant-baseline="middle">Renderers</text>
<text id="renderers_line_0" x="1174.0" y="460.0" fill="#526071" font-family="Inter, Segoe UI, Arial, sans-serif" font-size="14" font-weight="400" dominant-baseline="middle">editable PPTX</text>
<text id="renderers_line_1" x="1174.0" y="478.2" fill="#526071" font-family="Inter, Segoe UI, Arial, sans-serif" font-size="14" font-weight="400" dominant-baseline="middle">HTML and PDF</text>
<rect id="visual_check_shadow" x="1143.0" y="518.0" width="210.0" height="60.0" rx="14" fill="#0F172A" opacity="0.16"/>
<path id="visual_check" d="M1156.0,512.0 H1334.0 Q1350.0,512.0 1350.0,528.0 V556.0 Q1350.0,572.0 1334.0,572.0 H1156.0 Q1140.0,572.0 1140.0,556.0 V528.0 Q1140.0,512.0 1156.0,512.0 Z" fill="#FFF1F2" stroke="#BE123C" stroke-width="1.5"/>
<rect id="visual_check_stripe" x="1140.0" y="522.0" width="6.5" height="40.0" rx="3.2" fill="#BE123C"/>
<circle id="visual_check_seal" cx="1168.0" cy="542.0" r="17" fill="#BE123C"/>
<path id="visual_check_check" d="M1161.0,542.0 L1166.0,547.0 L1176.0,535.0" fill="none" stroke="#FFFFFF" stroke-width="3.2" stroke-linecap="round" stroke-linejoin="round"/>
<path id="visual_check_spark" d="M1307.0,531.0 l7,-7 l7,7 M1292.0,556.0 h34" fill="none" stroke="#F59E0B" stroke-width="2.2" stroke-linecap="round" opacity="0.9"/>
<text id="visual_check_label" x="1196.0" y="535.0" fill="#881337" font-family="Inter, Segoe UI, Arial, sans-serif" font-size="13" font-weight="800" dominant-baseline="middle">PROOF POINT</text>
<text id="visual_check_text" x="1196.0" y="555.0" fill="#881337" font-family="Inter, Segoe UI, Arial, sans-serif" font-size="14" font-weight="800" dominant-baseline="middle">visual validation</text>
<rect id="coherence_band_shadow" x="93.0" y="631.0" width="1220.0" height="72.0" rx="18.0" fill="#0F172A" opacity="0.12"/>
<rect id="coherence_band" x="90.0" y="625.0" width="1220.0" height="72.0" rx="18.0" fill="#FFFDF8" stroke="#DACFC0" stroke-width="1.4"/>
<text id="coherence_title" x="122.0" y="662.0" fill="#111827" font-family="Inter, Segoe UI, Arial, sans-serif" font-size="17" font-weight="700" dominant-baseline="middle">Coherence checks</text>
<text id="coherence_body" x="325.0" y="662.0" fill="#526071" font-family="Inter, Segoe UI, Arial, sans-serif" font-size="14" font-weight="400" dominant-baseline="middle">Hierarchy-scaled type, centered icon labels, bounded text, consistent spacing, aligned starts, and readable minimum sizes.</text>
<rect id="font_badge_shadow" x="1121.0" y="652.0" width="180.0" height="34.0" rx="7.0" fill="#0F172A" opacity="0.12"/>
<rect id="font_badge" x="1118.0" y="646.0" width="180.0" height="34.0" rx="7.0" fill="#111827" stroke="#111827" stroke-width="1.2"/>
<text id="font_badge_text" x="1140.0" y="664.0" fill="#FFFFFF" font-family="Inter, Segoe UI, Arial, sans-serif" font-size="13" font-weight="700" dominant-baseline="middle">font scale by role</text>
</svg>
